<svg xmlns="http://www.w3.org/2000/svg" width="348" height="348"><path fill="#1643B7" fill-rule="evenodd" d="M30 45.17C30 36.24 37.24 29 46.17 29h285.66c8.93 0 16.17 7.24 16.17 16.17v286.66c0 8.93-7.24 16.17-16.17 16.17H46.17C37.24 348 30 340.76 30 331.83V45.17z"/><path fill="#00CA60" fill-rule="evenodd" d="M0 14.656C0 6.562 6.562 0 14.656 0h144.688C167.438 0 174 6.562 174 14.656v144.688c0 8.094-6.562 14.656-14.656 14.656H14.656C6.562 174 0 167.438 0 159.344V14.656z"/><path fill="#1C1F20" d="M334.88 345.614c.028.122-.012.164-.109.209a9.122 9.122 0 0 1-1.237-.056 5.371 5.371 0 0 1 1.346-.153z"/><path fill="#010101" d="M349.936 122.693a3.994 3.994 0 0 1 .006-.959c.038.251.033.571-.006.959zM349.735 230.02c-.034-.041-.055-.113-.045-.234.041.036.05.12.045.234zM349.756 92.535c-.057.005-.088-.05-.08-.164.054.003.076.058.08.164zM349.736 195.064c-.064-.011-.071-.062-.005-.151.036.019.033.068.005.151z"/><path fill="#FEFEFF" d="M126.333 252.646c3.131.672 6.302 1.201 9.384 2.052 4.618 1.274 9.258 2.66 13.008 5.826 3.678 3.103 7.212 6.448 8.683 11.217 2.587 8.39 1.698 16.356-2.907 23.995-3.577 5.933-9.039 9.235-15.041 11.975a47.877 47.877 0 0 1-4.511 1.8c-1.548.523-2.105.183-2.445-1.391-.608-2.808-1.204-5.62-1.725-8.444-.508-2.756-.439-2.678 2.256-3.477 5.577-1.651 10.08-4.891 11.732-10.572 1.63-5.607 1.143-10.281-3.558-14.038-1.729-1.382-3.406-2.852-5.689-3.241-1.979-.337-3.251.487-3.615 2.462-.538 2.912-1.322 5.739-2.607 8.411-.558 1.159-1.181 2.288-1.809 3.412-4.491 8.028-10.614 14.526-19.037 18.291-6.488 2.901-13.336 4.841-20.692 4.015-7.435-.835-13.079-4.487-16.601-10.876-3.562-6.461-3.698-13.459-.043-19.913 3.099-5.472 7.441-10.059 12.892-13.44 1.784-1.106 3.516-2.298 5.248-3.486 1.08-.741 1.729-1.785 1.429-3.118-.699-3.107-.194-6.159.28-9.218.334-2.157-.094-2.776-2.288-2.871-2.541-.111-5.087-.091-7.629-.187-1.099-.042-2.192-.247-3.29-.347-.883-.081-1.228-.62-1.209-1.413.029-1.214.129-2.425.18-3.638.083-1.951.106-3.906.24-5.854.111-1.628.373-1.862 1.96-1.837 3.903.061 7.806.141 11.707.271.996.034 1.278-.278 1.372-1.288.334-3.589.815-7.163 1.23-10.744.085-.735.446-.939 1.187-.929 3.752.048 7.504.051 11.255.024 1.187-.009 1.376.082 1.179 1.32-.506 3.197-1.058 6.387-1.607 9.577-.285 1.657-.069 2.023 1.612 2 3.5-.048 7.005-.084 10.495-.318 7.242-.485 14.477-1.086 21.712-1.664 1.247-.099 2.504-.23 3.721-.503 1.104-.248 1.23.185 1.208 1.127-.048 1.983-.068 3.975.066 5.952.081 1.2.538 2.371.691 3.573.066.523-.206 1.09-.433 1.739-.513.299-.898.596-1.324.676-1.521.285-3.049.569-4.588.722-3.357.334-6.718.67-10.086.855-5.77.318-11.547.534-17.322.764-1.507.06-3.021-.045-4.527.031-1.516.076-2.102.588-2.481 2.045a7.073 7.073 0 0 0-.213 1.851c.02 1.62.116 3.238.158 4.858.044 1.671.21 1.862 1.869 1.786 2.976-.136 5.95-.383 8.927-.43 2.905-.045 5.813.102 8.812.192.407.063.723.099 1.109.168.605.104 1.14.177 1.675.25m-20.15 24.091c.084.315.168.631.228 1.105.058.144.116.288.116.529.032.065.063.13.079.385.241 1.228.399 2.48.744 3.678.545 1.891 1.541 2.261 3.082 1.071 1.064-.823 2.187-1.749 2.846-2.884 1.827-3.143 3.488-6.388 5.081-9.658.628-1.287.903-2.746 1.344-4.261-.13-.11-.259-.22-.446-.435-.075-.022-.149-.043-.342-.178-.477-.184-.943-.49-1.431-.53-3.874-.319-7.719.004-11.546.623-1.017.164-1.485.763-1.313 1.786.396 2.353.815 4.703 1.202 7.217.125.462.249.925.356 1.552m-16.624 15.314c1.753-.008 3.512.066 5.258-.051 1.227-.083 1.569-.707 1.296-1.897-.189-.82-.407-1.634-.596-2.621-.193-.671-.398-1.338-.577-2.012-.966-3.623-2.003-7.229-2.857-10.878-.46-1.966-1.028-2.358-2.845-1.398-.291.154-.563.347-.833.538a14.66 14.66 0 0 0-4.459 4.983c-1.35 2.474-2.127 5.127-1.407 7.965.396 1.562.866 3.273 2.441 4.02 1.365.647 2.929.873 4.579 1.351zM251.941 294.448c-1.687.991-3.269 2.016-4.939 2.866-6.069 3.089-12.048 6.383-18.548 8.538-.663.22-1.331.438-2.011.594-1.761.405-2.41.099-3.121-1.582-.342-.808-.516-1.686-.77-2.532-.636-2.114-1.253-4.234-1.917-6.339-.458-1.455-.368-1.731 1.104-2.312 3.22-1.271 6.414-2.618 9.68-3.758 4.462-1.557 8.545-3.788 12.369-6.523 2.094-1.497 4.222-2.959 6.2-4.599 1.588-1.316 1.561-2.052.263-3.627-5.3-6.428-8.668-13.883-11.629-21.579-1.282-3.333-1.841-6.816-2.62-10.26-.347-1.536-.518-1.717-2.063-1.712-2.468.008-4.936.087-7.404.131-3.563.063-3.68-.049-3.901-3.423-.172-2.606-.09-5.234-.008-7.849.074-2.349.75-2.911 3.059-2.898 6.413.036 12.826.04 19.239.109 2.467.026 4.933.172 7.398.3 1.349.07 1.688-.057 1.868-1.409.222-1.671.319-3.367.344-5.053.032-2.284-.041-4.57-.098-6.855-.027-1.055.421-1.558 1.492-1.564 3.759-.021 7.519-.05 11.278-.108 1.251-.019 1.344.856 1.353 1.711.024 2.321-.031 4.643-.034 6.965-.002 1.252-.009 2.506.067 3.755.12 1.958.629 2.424 2.632 2.416 1.805-.008 3.61-.107 5.416-.128 6.598-.077 13.196-.216 19.792-.175 3.736.023 3.346-.152 3.551 3.386.173 2.974.047 5.969-.024 8.953-.043 1.778-.461 2.071-2.262 1.961-2.279-.14-4.558-.285-6.838-.388-.695-.031-1.396.079-2.095.11-1.194.052-1.676.736-1.962 1.851-.968 3.772-1.947 7.546-3.085 11.27-1.583 5.18-4.132 9.922-7.015 14.48-1.357 2.146-2.853 4.205-4.316 6.283-.778 1.104-.838 1.891.081 2.869.878.935 1.79 1.871 2.819 2.626 7.446 5.459 15.708 9.245 24.54 11.842.352.104.695.246 1.027.403 1.598.754 1.83 1.249 1.326 2.956a679.028 679.028 0 0 1-2.476 8.247c-.627 2.032-1.323 2.443-3.366 1.801-7.218-2.268-14.182-5.113-20.762-8.905-4.198-2.418-8.223-5.029-11.899-8.194-1.98-1.704-3.094-1.435-5.078.285-2.083 1.805-4.386 3.355-6.657 5.064m19.457-45.259c.507-2.029 1.064-4.048 1.504-6.092.288-1.337-.139-1.716-1.541-1.636-.919.053-1.84.119-2.759.119-5.084.001-10.169-.031-15.253-.022-3.197.006-3.175.089-2.556 3.248.871 4.442 2.854 8.417 4.934 12.362 1.2 2.277 2.316 4.614 3.712 6.768 1.705 2.629 2.706 2.584 4.461.04 3.132-4.539 5.614-9.416 7.498-14.787z"/><path fill="#FDFEFF" d="M257.839 118.288c-1.405 3.07-3.273 5.733-5.222 8.386-2.582 3.514-5.197 6.978-8.424 9.918-5.761 5.248-11.907 9.973-18.875 13.549-.885.454-1.426.387-1.925-.571-1.735-3.326-3.558-6.607-5.295-9.932-.152-.29-.06-.916.165-1.15a6.87 6.87 0 0 1 1.752-1.311c6.062-3.165 11.551-7.169 16.196-12.136 3.963-4.238 7.382-8.936 10.088-14.168 1.985-3.838 3.056-7.93 4.405-11.957.326-.974-.047-1.472-1.087-1.535-1.029-.062-2.063-.06-3.095-.058-6.93.015-13.861.048-20.791.048-1.101 0-2.205-.118-3.304-.216-.827-.074-1.222-.541-1.225-1.397-.011-3.501-.036-7.003-.083-10.504-.01-.79.274-1.297 1.076-1.386 1.35-.148 2.705-.358 4.059-.36 10.358-.016 20.717.007 31.076.032 2.354.005 4.708.073 7.062.091.889.007 1.294.517 1.308 1.302.037 2.164-.034 4.331.017 6.495.106 4.535-.84 8.925-2.134 13.199-1.425 4.706-3.298 9.271-5.744 13.661z"/><path fill="#FFF" d="M277.877 93.168V73.889c3.359-.063 6.622-.144 9.886-.173 1.062-.009 2.124.12 3.186.186.861.053 1.231.585 1.235 1.372.005.919-.096 1.838-.097 2.757-.021 9.952-.039 19.905-.035 29.857.001 1.465-.054 1.808 1.893 1.726 4.452-.188 8.917-.057 13.377-.085.924-.006 1.036.691 1.043 1.249.045 3.574.038 7.15-.005 10.725-.013 1.034-.606 1.735-1.664 1.897-.723.111-1.461.177-2.192.173-3.384-.021-6.773-.193-10.151-.072-2.33.084-2.323.258-2.322 2.561l.009 29.194v5.709c-4.017 0-7.989.091-11.955-.035-2.214-.071-2.209-.233-2.209-2.518l.001-65.244z"/><path fill="#1D1C1C" d="M349.039 330.147c.035.111.013.255-.074.401-.037-.121-.01-.244.074-.401z"/><path fill="#010101" d="M41.863 345.798c-.027-.047.013-.103.117-.168.03.049-.008.106-.117.168z"/><path fill="#FFF" d="M133.124 129.611a4.438 4.438 0 0 1-.204.438c-.125.155-.162.215-.179.288l-.081.021c-.762.154-1.439.395-2.119.403-3.353.039-6.708.072-10.059-.017-1.066-.029-2.122-.442-3.182-.68 0 0-.016.016-.021-.043-.077-.095-.149-.132-.222-.17 0 0-.004.027 0-.04-.077-.169-.158-.27-.239-.371 0 0-.006.01-.003-.07-.291-.627-.587-1.174-.882-1.721-.614-1.674-1.261-3.337-1.832-5.025-.605-1.785-1.097-3.608-1.715-5.388-.618-1.783-1.363-3.521-1.989-5.301a13.554 13.554 0 0 1-.646-2.614c-.234-1.679-1.249-2.663-2.698-3.324-1.883-.86-3.879-.598-5.849-.588l-21.122.111c-1.511.008-3.06-.179-4.522.095-1.374.258-2.719.896-3.944 1.597-.464.266-.61 1.162-.806 1.799-.256.831-.339 1.72-.636 2.533-.876 2.397-1.919 4.738-2.699 7.165-.373 1.159-.504 2.38-1.1 3.497-.864 1.616-1.604 3.3-2.372 4.966-.15.327-.24.7-.273 1.06-.126 1.372-1.261 2.525-2.658 2.535-3.944.027-7.89.023-11.835.002-1.242-.007-1.893-.844-1.57-2.054.252-.948.647-1.859.996-2.78 1.42-3.75 3.076-7.431 4.203-11.267.985-3.355 2.706-6.42 3.555-9.781.775-3.066 2.008-5.886 3.545-8.611.137-.242.147-.556.21-.838.183-.818.272-1.67.561-2.448.924-2.497 2.124-4.911 2.815-7.465.42-1.554 1.065-2.93 1.738-4.346.712-1.5 1.528-3.018 1.842-4.618.247-1.259.482-2.473 1-3.649.776-1.764 1.51-3.547 2.226-5.336.209-.523.436-1.099.412-1.641-.063-1.421.791-2.389 1.444-3.493.515-.869.761-1.894 1.246-2.784 1.087-1.991.887-4.319 1.759-6.364.649-1.521.876-3.362 1.891-4.547 1.11-1.297.639-2.951 1.625-4.164.485-.595.69-1.411 1.103-2.077.108-.173.522-.217.796-.217 6.562-.012 13.125-.012 19.688-.005.955.001 2.318 1.059 2.299 1.938-.028 1.284.295 2.39.873 3.538.727 1.446 1.21 3.019 1.749 4.554.646 1.84 1.176 3.723 1.877 5.541.725 1.882 1.595 3.709 2.405 5.558.057.13.206.257.194.373-.219 2.039.948 3.636 1.691 5.368.043.1.098.216.084.315-.248 1.76.959 2.986 1.61 4.416.059.129.167.267.156.392-.171 1.864.898 3.267 1.675 4.808.603 1.196.962 2.523 1.365 3.811.355 1.132.613 2.294.932 3.438.067.238.232.447.324.68.929 2.333 2.192 4.603 2.663 7.026.347 1.79 1.138 3.237 1.806 4.831 1.07 2.556 1.808 5.25 2.74 7.866.755 2.121 1.606 4.207 2.384 6.32 1.826 4.958 3.637 9.921 5.444 14.885.162.445.249.916.419 1.495a.492.492 0 0 0 .112.174M82.722 76.647c-.435 1.277-.908 2.544-1.287 3.838-.14.478.138 1.175-.118 1.506-.792 1.021-1.657 1.96-1.76 3.337-.009.117-.209.208-.273.334-.638 1.276-1.476 2.456-1.43 4.008.028.932.27 1.335 1.265 1.289a135.21 135.21 0 0 1 6.738-.17c5.046.02 10.091.1 15.136.147 1.35.013 1.8-.385 1.599-1.7-.168-1.104-.597-2.17-.921-3.249-.028-.093-.135-.222-.216-.231-.731-.079-.594-.629-.56-1.069.084-1.061.005-2.099-.908-2.772-.939-.691-.73-1.652-.924-2.575-.189-.894-.813-1.697-1.249-2.538-.151-.291-.476-.601-.441-.864.242-1.804-.655-3.156-1.646-4.491-.095-.129-.167-.335-.14-.485.359-1.953-.612-3.553-1.337-5.227-.496-1.147-.67-2.556-1.457-3.421-.829-.911-.726-1.776-.752-2.741-.02-.719-.004-1.439-.004-2.18h-2.936l-.616 5.239c-1.26-.238-.588.965-1.01 1.269-.793.573-.772 1.307-.755 2.103.004.181.034.426-.065.533-1.212 1.311-1.813 2.833-1.72 4.629.007.127-.227.25-.286.4-.548 1.392-1.725 2.561-1.487 4.242.028.196-.253.436-.44.839z"/><path fill="#00A554" d="M115.931 127.739c.297.457.593 1.004.89 1.631-.642-.268-.999-.777-.89-1.631zM132.792 130.332c-.034-.068.003-.128.11-.196.013.052-.023.122-.11.196zM116.822 129.511c.077.03.158.131.249.298-.076-.032-.16-.13-.249-.298zM133.124 129.59c0 .021-.063-.034-.068-.076.035-.019.06.013.068.076zM117.074 129.912c.056-.023.128.014.216.113-.057.024-.128-.014-.216-.113z"/><path fill="#1A47B6" d="M105.839 275.104c.164.403.318.887.416 1.421-.179-.415-.303-.878-.416-1.421z"/><path fill="#1643B7" d="M123.549 252.228c.26-.025.613-.023 1.002.057-.279.042-.595.006-1.002-.057z"/><path fill="#1A47B6" d="M106.423 277.763c.071.063.13.205.176.43-.072-.063-.13-.207-.176-.43zM119.286 266.32c-.043.028-.115.002-.22-.07.042-.026.116-.005.22.07z"/><path fill="#01C362" d="M82.747 76.555c.162-.311.443-.551.415-.747-.238-1.681.939-2.85 1.487-4.242.059-.15.293-.273.286-.4-.093-1.796.508-3.318 1.72-4.629.099-.107.069-.352.065-.533-.017-.796-.038-1.53.755-2.103.422-.304-.25-1.507 1.01-1.269l.616-5.239h2.936c0 .741-.016 1.461.004 2.18.026.965-.077 1.83.752 2.741.787.865.961 2.274 1.457 3.421.725 1.674 1.696 3.274 1.337 5.227-.027.15.045.356.14.485.991 1.335 1.888 2.687 1.646 4.491-.035.263.29.573.441.864.436.841 1.06 1.644 1.249 2.538.194.923-.015 1.884.924 2.575.913.673.992 1.711.908 2.772-.034.44-.171.99.56 1.069.081.009.188.138.216.231.324 1.079.753 2.145.921 3.249.201 1.315-.249 1.713-1.599 1.7-5.045-.047-10.09-.127-15.136-.147a135.21 135.21 0 0 0-6.738.17c-.995.046-1.237-.357-1.265-1.289-.046-1.552.792-2.732 1.43-4.008.064-.126.264-.217.273-.334.103-1.377.968-2.316 1.76-3.337.256-.331-.022-1.028.118-1.506.379-1.294.852-2.561 1.312-3.93z"/><path fill="#00C962" d="m89.281 57.665 2.91-.12 11.192 33.582-25.183.331c.053.119-.606-1.866-.441-1.866M101.229 42.523l30.22 81.9 20.032-42.881-48.232-40.153M80.067 42.233l-27.629 74.121-6.507-53.361M62.757 130.265l9.333-24.193M63.148 129.615l8.942-24.063 34.75-.13 1.692.52 7.939 23.427"/></svg>